<svg xmlns="http://www.w3.org/2000/svg" viewBox="0 0 100 100">
  <rect fill="transparent" width="100" height="100"/>
  <g class="arcis-char" transform="translate(0, 0)">
    <!-- Legs -->
    <g fill="none" stroke="#52525b" stroke-linecap="round" stroke-width="3">
      <path class="arcis-ll" d="M35 45 Q20 40 15 55"/>
      <path class="arcis-ll" d="M35 55 Q20 60 15 75"/>
      <path class="arcis-lr" d="M65 45 Q80 40 85 55"/>
      <path class="arcis-lr" d="M65 55 Q80 60 85 75"/>
    </g>
    <!-- Body -->
    <circle cx="50" cy="55" r="22" fill="#71717a"/>
    <circle cx="50" cy="55" r="18" fill="#52525b" opacity=".3"/>
    <!-- Eyes -->
    <circle class="arcis-eye" cx="42" cy="52" r="6" fill="white"/>
    <circle class="arcis-eye" cx="58" cy="52" r="6" fill="white"/>
    <circle cx="43" cy="51" r="2" fill="#18181b"/>
    <circle cx="57" cy="51" r="2" fill="#18181b"/>
    <circle cx="34" cy="58" r="1.5" fill="white" opacity=".8"/>
    <circle cx="66" cy="58" r="1.5" fill="white" opacity=".8"/>
    <!-- Detective Hat -->
    <path d="M32 38 L68 38 L72 46 L28 46 Z" fill="#94A3B8"/>
    <path d="M40 38 L40 30 Q50 28 60 30 L60 38" fill="#94A3B8" stroke="#64748b" stroke-width="1"/>
    <rect x="32" y="42" width="36" height="2" fill="#475569"/>
    <!-- Magnifier -->
    <g class="arcis-mag">
      <path class="arcis-glow" d="M45 68 Q50 75 55 68" fill="none" stroke="#A3E635" stroke-linecap="round" stroke-width="3"/>
      <g transform="translate(50,78)">
        <circle cx="0" cy="0" r="10" fill="#2DD4BF" opacity=".2"/>
        <circle cx="0" cy="0" r="10" fill="none" stroke="#94A3B8" stroke-width="2"/>
        <line x1="7" y1="7" x2="12" y2="12" stroke="#94A3B8" stroke-linecap="round" stroke-width="3"/>
        <path d="M-5 -3 Q0 -5 5 -3" fill="none" stroke="white" stroke-linecap="round" stroke-width="1" opacity=".6"/>
      </g>
    </g>
  </g>
</svg>
